<?xml version="1.0" encoding="utf-8"?>

<!DOCTYPE svg PUBLIC "-//W3C//DTD SVG 1.1//EN" "http://www.w3.org/Graphics/SVG/1.1/DTD/svg11.dtd">
<svg version="1.1" id="Layer_1" xmlns="http://www.w3.org/2000/svg" xmlns:xlink="http://www.w3.org/1999/xlink" x="0px" y="0px"
	 viewBox="0 0 1539.382 1673.767" enable-background="new 0 0 1539.382 1673.767" xml:space="preserve">
<g>
	<g>
		<path d="M1482.974,369.194c11.723,16.446,7.576,10.539,22.486,32.13l-37.965-1.15l-12.37,35.911
			c-15.289-22.139-10.396-15.154-21.752-31.09c1.366-4,5.377-15.384,11.355-35.964
			C1465.971,368.631,1477.571,369.047,1482.974,369.194z"/>
		<path d="M1454.038,331.507c12.798,15.875,8.018,9.759,24.622,31.656c-12.071-0.178-26.153-0.115-38.242,0.185
			c-3.254,11.456-7.309,24.741-11.026,36.073c-15.555-20.507-10.629-14.201-22.751-29.242c1.176-4.248,4.464-15.707,9.209-36.573
			C1437.032,331.951,1448.636,331.679,1454.038,331.507z"/>
		<path d="M1422.929,295.597c13.728,15.109,8.611,9.305,26.448,30.144c-12.35,0.549-26.395,1.455-38.164,2.445
			c-2.57,11.621-5.833,25.128-8.874,36.662c-16.728-19.539-11.437-13.532-24.44-27.849c0.871-4.066,3.522-15.904,7.034-37.053
			C1405.979,297.045,1417.579,296.085,1422.929,295.597z"/>
		<path d="M1389.754,261.587c14.74,14.415,9.268,8.907,28.18,28.531c-12.177,1.265-26.137,2.992-37.952,4.693
			c-1.907,11.923-4.371,25.579-6.695,37.122c-17.833-18.5-11.848-12.474-26.041-26.359c0.628-4.103,2.574-16.061,4.835-37.404
			C1372.868,264.044,1384.442,262.39,1389.754,261.587z"/>
		<path d="M1354.63,229.594c15.367,13.35,9.41,8.004,29.814,26.819c-11.608,1.903-25.435,4.431-37.609,6.925
			c-1.218,12.199-2.874,25.94-4.493,37.453c-18.832-17.361-12.5-11.698-27.55-24.777c0.379-4.066,1.621-16.167,2.619-37.623
			C1337.918,233.043,1349.413,230.7,1354.63,229.594z"/>
		<path d="M1317.676,199.73c16.42,12.643,10.319,7.803,31.347,25.013c-12.132,2.733-25.748,6.089-37.135,9.133
			c-0.469,11.594-1.286,25.435-2.274,37.652c-19.839-16.232-13.106-10.89-28.964-23.105c0.14-4.158,0.663-16.278,0.39-37.712
			C1301.196,204.159,1312.533,201.142,1317.676,199.73z"/>
		<path d="M1279.017,172.102c17.099,11.619,10.739,7.162,32.775,23.116c-11.372,3.279-24.808,7.423-36.53,11.312
			c0.219,11.649,0.218,25.516-0.045,37.721c-20.755-15.023-13.8-10.149-30.278-21.349c-0.107-4.186-0.3-16.286-1.844-37.668
			C1262.349,177.685,1273.217,174.071,1279.017,172.102z"/>
		<path d="M1238.785,146.812c17.528,10.442,10.91,6.363,34.092,21.132c-11.383,4.026-24.567,8.976-35.797,13.457
			c0.951,12.16,1.751,26.015,2.191,37.656c-21.754-13.855-14.911-9.633-31.488-19.512c-0.38-4.467-1.277-16.348-4.076-37.491
			C1223.109,153.08,1234.065,148.734,1238.785,146.812z"/>
	</g>
	<g>
		<path d="M1238.785,146.812c17.528,10.442,10.91,6.363,34.092,21.132c-11.383,4.026-24.567,8.976-35.797,13.457
			c0.951,12.16,1.751,26.015,2.191,37.656c-21.754-13.855-14.911-9.633-31.488-19.512c-0.38-4.467-1.277-16.348-4.076-37.491
			C1223.109,153.08,1234.065,148.734,1238.785,146.812z"/>
		<path d="M1197.117,123.956c18.135,9.382,11.149,5.638,35.293,19.066c-11.391,4.808-24.247,10.542-34.939,15.565
			c1.633,11.792,3.269,25.585,4.426,37.453c-22.806-12.678-15.107-8.552-32.591-17.6c-0.701-4.815-2.276-16.414-6.3-37.181
			C1181.47,131.34,1191.693,126.552,1197.117,123.956z"/>
		<path d="M1154.156,103.623c17.821,7.897,10.06,4.291,36.372,16.928c-11.767,5.867-22.165,11.198-33.953,17.623
			c2.401,12.001,4.826,25.567,6.65,37.117c-23.735-11.394-16.291-7.959-33.58-15.622c-1.181-5.697-3.267-16.338-8.507-36.738
			C1138.755,112.057,1147.395,107.371,1154.156,103.623z"/>
		<path d="M1110.055,85.891c19.06,7.097,36.319,14.264,37.319,14.729c-4.704,2.65-18.745,10.801-32.842,19.62
			c3.488,13.245,7.138,28.644,8.854,36.652c-1-0.469-16.772-7.008-34.448-13.59c-1.909-7.05-4.513-16.996-10.688-36.163
			C1094.566,95.656,1102.746,90.537,1110.055,85.891z"/>
		<path d="M1064.97,70.828c20.246,6.16,36.226,11.775,38.132,12.476c-4.123,2.601-18.73,12.369-31.61,21.55
			c5.073,15.427,9.857,31.668,11.03,36.055c-1.315-0.485-16.39-5.791-35.196-11.51c-3.406-10.116-6.087-18.173-12.833-35.459
			C1049.544,81.927,1056.868,76.693,1064.97,70.828z"/>
		<path d="M1019.065,58.49c18.624,4.436,36.194,9.346,38.807,10.181c-9.063,6.616-21.665,16.455-30.263,23.404
			c4.012,10.099,9.534,24.68,13.168,35.33c-1.594-0.513-16.526-4.802-35.819-9.393c-4.98-12.444-9.115-22.035-14.931-34.63
			C1000.649,73.796,1008.646,66.963,1019.065,58.49z"/>
		<path d="M972.509,48.916c16.542,2.873,33.427,6.452,39.339,7.857c-9.89,8.215-20.229,17.335-28.809,25.172
			c4.961,10.575,10.356,22.601,15.257,34.479c-6.434-1.535-23.136-4.966-36.317-7.25c-8.082-17.092-12.301-24.907-16.971-33.681
			C952.959,67.46,958.767,61.559,972.509,48.916z"/>
		<path d="M925.474,42.129c15.039,1.658,31.754,4.154,39.727,5.52c-7.678,7.206-15.964,15.204-27.255,26.844
			c10.533,19.322,15.835,30.52,17.286,33.51c-7.176-1.236-22.877-3.583-36.688-5.096c-9.951-18.118-15.815-27.515-18.942-32.62
			C903.155,66.234,910.585,57.595,925.474,42.129z"/>
	</g>
	<g>
		<path d="M925.474,42.129c15.039,1.658,31.754,4.154,39.727,5.52c-7.678,7.206-15.964,15.204-27.255,26.844
			c10.533,19.322,15.835,30.52,17.286,33.51c-7.176-1.236-22.877-3.583-36.688-5.096c-9.951-18.118-15.815-27.515-18.942-32.62
			C903.155,66.234,910.585,57.595,925.474,42.129z"/>
		<path d="M878.133,38.131c8.767,0.416,26.98,1.764,39.97,3.188c-4.315,4.571-11.801,12.337-25.612,28.41
			c10.833,17.301,15.196,25.232,19.244,32.429c-12.046-1.329-29.183-2.586-36.934-2.946c-6.36-10.083-13.463-20.902-20.834-31.457
			C861.893,57.536,870.069,47.59,878.133,38.131z"/>
		<path d="M830.654,36.895c3.636-0.045,21.243,0.006,40.074,0.887c-8.39,9.945-15.078,18.261-23.893,29.861
			c7.7,10.798,13.668,19.568,21.121,31.248c-14.044-0.663-31.783-0.894-37.058-0.825c-12.278-17.137-20.407-27.318-22.637-30.154
			C814.7,58.561,821.335,49.232,830.654,36.895z"/>
		<path d="M783.185,38.5c13.83-0.874,26.199-1.335,40.059-1.513c-5.948,8.035-11.659,15.69-22.11,31.195
			c11.253,14.025,16.201,20.802,22.911,29.971c-12.764,0.159-24.407,0.596-37.036,1.398c-8.015-9.882-12.99-15.989-24.364-28.796
			C771.616,55.892,776.123,49.104,783.185,38.5z"/>
		<path d="M735.871,42.843c3.377-0.386,23.266-2.812,39.916-3.873c-7.134,10.865-14.3,22.43-20.246,32.416
			c7.845,8.728,16.389,18.571,24.63,28.598c-14.284,0.9-30.825,2.888-36.877,3.578c-8.511-9.37-17.598-18.852-26.026-27.331
			C722.675,66.017,729.164,54.249,735.871,42.843z"/>
		<path d="M688.888,50.007c15.36-2.938,32.414-5.224,39.626-6.232c-10.349,18.05-15.544,28.29-18.286,33.609
			c2.539,2.499,12.033,11.696,26.27,27.039c-4.455,0.624-22.303,3.011-36.59,5.754c-14.524-14.157-23.293-21.856-27.595-25.684
			C673.865,81.075,679.089,69.28,688.888,50.007z"/>
		<path d="M642.414,59.986c23.371-5.701,34.145-7.617,39.189-8.585c-3.531,7.117-8.232,16.424-16.258,34.609
			c14.535,12.676,21.351,19.26,27.839,25.456c-14.638,2.801-24.026,4.958-36.175,7.924c-4.747-4.098-13.137-11.465-29.088-24.021
			C635.143,76.491,639.483,66.728,642.414,59.986z"/>
		<path d="M596.597,72.655c26.08-7.724,37.612-10.683,38.612-10.908c-2.892,6.638-9.995,24.229-14.156,35.541
			c10.3,7.893,24.702,19.747,29.305,23.724c-7.484,1.669-34.637,9.771-35.637,10.067c-10.616-8.046-19.236-14.404-30.461-22.201
			C588.495,95.447,592.131,85.019,596.597,72.655z"/>
	</g>
	<g>
		<path d="M596.597,72.655c26.08-7.724,37.612-10.683,38.612-10.908c-2.892,6.638-9.995,24.229-14.156,35.541
			c10.3,7.893,24.702,19.747,29.305,23.724c-7.484,1.669-34.637,9.771-35.637,10.067c-10.616-8.046-19.236-14.404-30.461-22.201
			C588.495,95.447,592.131,85.019,596.597,72.655z"/>
		<path d="M551.651,88.137c19.124-7.265,34.783-12.2,37.884-13.207c-6.044,16.923-8.542,25.06-12.005,36.319
			c9.321,6.374,16.539,11.296,30.673,21.934c-3.62,1.175-17.614,5.588-34.966,12.19c-10.833-7.333-20.104-13.296-31.744-20.361
			C544.646,112.354,547.578,101.642,551.651,88.137z"/>
		<path d="M507.688,106.213c3.787-1.657,20.646-9.205,37.03-15.439c-3.634,12.497-6.94,25.049-9.826,36.936
			c10.231,6.129,20.907,12.788,31.946,20.096c-14.283,5.424-30.146,12.486-34.181,14.251c-11.878-7.024-21.411-12.281-32.915-18.451
			C502.19,130.924,504.398,120.128,507.688,106.213z"/>
		<path d="M464.901,126.911c15.538-8.193,30.954-15.264,36.032-17.634c-4.53,20.051-6.278,30.26-7.579,37.503
			c4.517,2.347,15.161,7.75,33.067,18.106c-11.488,5.365-21.99,10.328-33.266,16.281c-16.824-8.643-26.035-12.804-33.94-16.425
			C460.272,156.534,461.537,146.234,464.901,126.911z"/>
		<path d="M423.42,150.106c5.028-2.973,18.131-10.869,34.921-19.734c-0.667,4.071-2.865,16.871-5.352,37.85
			c19.35,8.631,30.205,14.185,34.109,16.141c-14.733,7.767-28.139,15.794-32.248,18.222c-11.898-5.238-23.019-9.814-34.881-14.415
			C420.806,175.995,421.892,163.586,423.42,150.106z"/>
		<path d="M383.391,175.716c12.312-8.529,26.453-17.281,33.675-21.787c-2.172,21.175-2.793,33.467-3.065,38.144
			c4.115,1.547,15.921,5.884,34.981,14.041c-4.431,2.767-19.147,11.831-31.102,20.124c-18.9-7.005-29.178-10.206-35.645-12.28
			C382.29,207.647,382.286,196.624,383.391,175.716z"/>
		<path d="M344.964,203.668c19.324-14.816,28.183-20.85,32.331-23.728c-0.258,6.002-0.85,17.969-0.824,38.221
			c19.521,6.044,29.41,9.692,35.779,11.98c-15.407,10.675-26.7,19.491-29.868,21.919c-10.155-3.091-20.597-6.147-36.338-10.184
			C344.975,220.699,344.99,207.771,344.964,203.668z"/>
		<path d="M308.239,233.814c8.101-7.381,28.232-23.499,30.858-25.613c0.194,11.454,0.698,26.791,1.47,38.242
			c10.954,2.613,25.631,6.646,36.393,9.802c-1.202,0.969-20.833,16.647-28.51,23.665c-19.639-4.725-31.283-6.904-36.843-7.982
			C310.284,259.926,309.26,249.246,308.239,233.814z"/>
	</g>
	<g>
		<path d="M308.239,233.814c8.101-7.381,28.232-23.499,30.858-25.613c0.194,11.454,0.698,26.791,1.47,38.242
			c10.954,2.613,25.631,6.646,36.393,9.802c-1.202,0.969-20.833,16.647-28.51,23.665c-19.639-4.725-31.283-6.904-36.843-7.982
			C310.284,259.926,309.26,249.246,308.239,233.814z"/>
		<path d="M273.39,266.109c9.745-9.515,16.878-16.345,29.303-27.374c0.505,6.634,1.282,18.025,3.696,38.054
			c19.221,3.53,29.077,5.862,36.94,7.67c-12.025,10.666-18.945,17.354-27.075,25.293c-3.956-0.707-16.437-3.047-37.282-5.826
			C275.471,283.417,274.03,271.208,273.39,266.109z"/>
		<path d="M240.466,300.364c8.751-9.853,24.98-26.358,27.622-29.071c1.62,11.878,3.575,24.591,5.971,37.805
			c12.816,1.573,25.47,3.452,37.292,5.441c-2.93,3.008-18.004,18.382-25.522,26.862c-19.849-2.345-32.519-3.216-37.523-3.582
			C245.757,326.852,243.334,315.721,240.466,300.364z"/>
		<path d="M209.673,336.547c7.581-9.411,14.209-17.491,25.872-30.639c1.841,9.348,3.714,19.077,8.157,37.357
			c18.038,1.139,26.692,2.086,37.583,3.261c-8.251,9.296-14.392,16.495-23.904,28.308c-5.506-0.322-16.939-1.099-37.705-1.388
			C213.891,353.893,211.401,343.507,209.673,336.547z"/>
		<path d="M181.006,374.442c3.037-4.577,22.193-29.935,24.017-32.119c2.391,9.399,6.425,23.938,10.376,36.83
			c13.085,0.053,27.862,0.496,37.684,1.015c-3.307,3.942-20.932,27.769-22.187,29.672c-12.571,0.013-24.745,0.281-37.679,0.874
			C188.787,398.476,184.883,386.831,181.006,374.442z"/>
		<path d="M154.707,414.022c7.133-11.423,12.707-19.973,22.073-33.486c3.747,11.771,7.542,22.817,12.515,36.137
			c13.014-0.727,24.602-1.121,37.699-1.201c-2.692,3.883-9.642,13.709-20.387,30.929c-8.003,0.485-18.365,1.051-37.598,3.083
			C161.401,431.824,157.853,422.317,154.707,414.022z"/>
		<path d="M130.718,455.048c0.612-1.091,13.137-23.63,20.063-34.734c3.694,9.629,10.299,25.599,14.64,35.334
			c10.4-1.232,27.267-2.774,37.557-3.438c-6.229,9.969-16.783,28.965-18.528,32.075c-13.371,1.656-24.063,3.123-37.314,5.331
			C140.833,477.098,136.125,466.986,130.718,455.048z"/>
		<path d="M109.299,497.478c8.58-18.366,15.289-30.845,17.944-35.877c7.01,15.341,10.522,22.291,16.719,34.402
			c13.149-2.277,20.895-3.583,37.283-5.666c-2.337,4.429-8.558,15.961-16.567,33.124c-12.306,2.182-23.464,4.44-36.955,7.532
			C120.667,518.863,115.162,508.806,109.299,497.478z"/>
	</g>
	<g>
		<path d="M109.299,497.478c8.58-18.366,15.289-30.845,17.944-35.877c7.01,15.341,10.522,22.291,16.719,34.402
			c13.149-2.277,20.895-3.583,37.283-5.666c-2.337,4.429-8.558,15.961-16.567,33.124c-12.306,2.182-23.464,4.44-36.955,7.532
			C120.667,518.863,115.162,508.806,109.299,497.478z"/>
		<path d="M90.377,541.083c4.2-10.286,9.561-23.543,15.785-36.883c6.088,11.463,12.734,23.209,18.706,33.33
			c11.403-2.688,24.055-5.439,36.913-7.864c-5.732,12.266-10.811,24.847-14.572,34.047c-12.06,2.876-29.881,7.745-36.45,9.723
			C106.752,567.499,96.704,551.734,90.377,541.083z"/>
		<path d="M74.141,585.76c5.661-17.298,11.396-32.134,13.538-37.768c10.533,17.221,16.229,25.528,20.71,32.169
			c6.849-2.059,17.047-5.214,36.331-10.072c-1.808,4.756-7.207,18.671-12.495,34.859c-17.771,5.436-26.687,8.653-35.78,11.893
			C91.302,609.986,85.148,601.882,74.141,585.76z"/>
		<path d="M60.589,631.324c1.399-5.17,5.358-20.302,11.262-38.508c5.662,8.119,12.136,17.257,22.561,30.862
			c19.687-7.238,31.252-10.807,35.699-12.217c-5.213,16.038-9.337,31.636-10.394,35.541c-10.563,3.944-21.221,8.12-35.039,14.004
			C70.939,644.831,62.821,634.206,60.589,631.324z"/>
		<path d="M49.758,677.608c2.589-13.479,7.877-34.795,8.932-39.114c8.183,10.326,15.887,19.642,24.418,29.469
			c11.987-5.259,23.264-9.875,34.854-14.343c-0.862,3.535-5.893,23.805-8.245,36.104c-10.158,4.516-24.03,10.966-34.089,16.083
			C67.638,697.6,57.295,686.193,49.758,677.608z"/>
		<path d="M41.776,724.462c1.585-11.314,3.103-21.387,6.584-39.569c7.89,8.808,13.619,15.214,26.102,27.951
			c15.546-7.97,23.031-11.397,33.968-16.394c-3.186,16.616-4.631,26.168-6.079,36.535c-10.645,5.527-17.926,9.311-33.102,18.08
			C56.138,738.966,50.151,732.915,41.776,724.462z"/>
		<path d="M36.53,771.689c0.337-3.797,1.958-23.678,4.219-39.882c9.255,9.211,19.102,18.515,27.689,26.345
			c10.174-5.96,21.492-12.327,32.962-18.384c-2.05,14.613-3.585,33.331-3.897,36.842c-10.911,6.47-22.191,13.581-32,20.008
			C56.949,789.569,46.523,780.7,36.53,771.689z"/>
		<path d="M34.097,819.129c-0.025-11.411,1.681-37.057,1.871-40.048c16.177,14.265,25.489,21.635,29.247,24.663
			c2.469-1.657,13.491-9.198,31.769-20.303c-0.063,1-1.773,26.316-1.73,37.021c-9.231,6.262-21.786,15.085-30.726,21.852
			C54.434,834.976,45.082,827.878,34.097,819.129z"/>
	</g>
	<g>
		<path d="M34.097,819.129c-0.025-11.411,1.681-37.057,1.871-40.048c16.177,14.265,25.489,21.635,29.247,24.663
			c2.469-1.657,13.491-9.198,31.769-20.303c-0.063,1-1.773,26.316-1.73,37.021c-9.231,6.262-21.786,15.085-30.726,21.852
			C54.434,834.976,45.082,827.878,34.097,819.129z"/>
		<path d="M34.477,866.618c-0.491-13.005-0.675-24.156-0.476-40.079c8.578,6.696,15.647,12.248,30.616,22.907
			c14.751-11.225,22.195-16.339,30.55-22.13c-0.186,14.482-0.028,24.838,0.44,37.066c-10.114,7.709-18.743,14.608-29.419,23.607
			C54.935,880.794,45.702,874.589,34.477,866.618z"/>
		<path d="M37.589,914.022c-1.165-13.103-2.324-26.815-2.83-39.997c10.676,7.419,21.904,14.788,31.88,21.083
			c8.893-7.587,18.862-15.805,29.227-23.877c0.456,12.118,1.566,25.131,2.615,36.963c-9.792,8.443-19,16.805-28.001,25.3
			C60.119,927.66,49.043,921.162,37.589,914.022z"/>
		<path d="M43.5,961.174c-2.136-12.104-4.708-35.597-5.185-39.773c18.742,11.398,30.237,17.579,33.119,19.161
			c8.138-7.85,16.602-15.759,27.717-25.552c0.164,1.434,2.888,26.057,4.788,36.733c-14.815,14.432-23.727,24.057-26.399,26.908
			C67.226,973.647,56.901,968.431,43.5,961.174z"/>
		<path d="M52.257,1007.891c-0.696-3.201-3.812-16.883-7.546-39.4c8.925,4.719,17.316,9.197,34.172,17.165
			c12.231-13.311,18.438-19.461,26.178-27.157c2.177,13.153,4.183,23.599,6.966,36.374c-6.391,7.027-12.841,14.06-24.778,28.441
			C70.013,1016.203,61.489,1012.194,52.257,1007.891z"/>
		<path d="M63.719,1054.024c-0.271-1-7.459-27.204-9.883-38.885c10.313,4.758,26.664,11.732,35.131,15.098
			c5.421-6.706,16.69-20,24.516-28.672c2.068,10.039,8.757,34.54,9.122,35.891c-7.798,9.568-19.6,25.084-23.026,29.87
			C94.212,1065.547,75.677,1058.828,63.719,1054.024z"/>
		<path d="M77.987,1099.369c-6.057-17.22-10.836-33.633-12.2-38.221c18.141,7.014,27.319,10.046,35.994,12.961
			c4.264-5.901,10.586-14.781,22.733-30.079c0.698,2.344,5.411,18.681,11.26,35.276c-10.591,14.807-15.641,22.641-21.188,31.191
			C104.687,1107.713,95.754,1105.233,77.987,1099.369z"/>
		<path d="M94.908,1143.792c-1.47-3.597-8.209-19.777-14.456-37.425c10.976,3.501,22.228,6.894,36.669,10.798
			c11.12-17.52,18.441-27.846,20.928-31.4c5.454,15.438,11.229,29.37,13.343,34.544c-6.856,10.92-13.091,21.423-19.322,32.419
			C120.106,1150.127,107.875,1147.224,94.908,1143.792z"/>
	</g>
	<g>
		<path d="M94.908,1143.792c-1.47-3.597-8.209-19.777-14.456-37.425c10.976,3.501,22.228,6.894,36.669,10.798
			c11.12-17.52,18.441-27.846,20.928-31.4c5.454,15.438,11.229,29.37,13.343,34.544c-6.856,10.92-13.091,21.423-19.322,32.419
			C120.106,1150.127,107.875,1147.224,94.908,1143.792z"/>
		<path d="M114.451,1187.12c-7.135-14.369-13.965-30.278-16.679-36.486c20.721,5.245,32.738,7.625,37.296,8.565
			c5.209-9.425,10.672-19.049,18.967-32.574c4.132,9.44,9.397,21.614,15.398,33.682c-9.698,17.743-14.938,28.649-17.307,33.491
			C147.636,1193.103,135.177,1191.28,114.451,1187.12z"/>
		<path d="M136.561,1229.192c-2.808-5.024-9.633-16.972-18.81-35.429c5.262,1.002,16.988,3.348,37.703,6.344
			c8.761-18.363,13.847-27.705,17.027-33.667c8.193,16.495,14.559,27.688,17.368,32.713c-1.314,2.788-6.983,14.518-15.32,34.484
			C153.351,1231.64,141.144,1229.831,136.561,1229.192z"/>
		<path d="M161.093,1269.894c-7.649-11.629-18.319-29.87-20.899-34.236c12.352,1.587,24.787,2.951,38.058,4.063
			c4.901-12.093,9.906-23.598,14.949-34.596c0.647,1.09,12.745,21.666,19.302,31.618c-7.842,19.607-12.036,31.959-13.203,35.306
			C188.689,1271.685,177.582,1271.187,161.093,1269.894z"/>
		<path d="M188.045,1309.03c-7.289-9.995-13.379-18.518-22.875-32.941c8.886,0.609,19.091,1.36,38.194,1.821
			c5.94-17.587,9.325-26.221,12.907-35.447c11.01,16.733,18.342,26.605,21.13,30.429c-1.651,4.968-5.443,16.025-11.125,36.053
			C205.773,1309.46,194.848,1309.16,188.045,1309.03z"/>
		<path d="M217.203,1346.547c-1.986-2.229-21.616-27.054-24.787-31.527c13.066,0.081,24.319,0.025,38.262-0.464
			c3.625-13.282,6.836-23.811,10.757-36.128c3.272,4.633,21.501,27.564,22.901,29.126c-3.288,12.286-6.15,23.971-8.936,36.615
			C242.136,1345.294,230.01,1346.025,217.203,1346.547z"/>
		<path d="M248.591,1382.216c-15.145-16.274-23.436-26.262-26.602-30.006c12.407-0.627,20.8-1.06,38.145-2.706
			c3.533-16.831,5.554-24.758,8.626-36.721c2.774,3.281,10.526,12.631,24.579,27.724c-1.642,8.007-3.727,17.857-6.792,37.111
			C267.279,1380.406,257.167,1381.358,248.591,1382.216z"/>
		<path d="M281.959,1416.039c-1.1-1.076-19.325-18.759-28.315-28.397c5.165-0.497,24.216-2.802,37.927-4.961
			c1.919-13.109,5.265-31.552,6.434-37.158c8.107,8.709,22.055,22.222,26.162,26.24c-1.658,11.523-3.261,24.295-4.555,37.41
			C306.77,1411.818,294.018,1414.102,281.959,1416.039z"/>
	</g>
	<g>
		<path d="M281.959,1416.039c-1.1-1.076-19.325-18.759-28.315-28.397c5.165-0.497,24.216-2.802,37.927-4.961
			c1.919-13.109,5.265-31.552,6.434-37.158c8.107,8.709,22.055,22.222,26.162,26.24c-1.658,11.523-3.261,24.295-4.555,37.41
			C306.77,1411.818,294.018,1414.102,281.959,1416.039z"/>
		<path d="M317.339,1447.753c-15.82-13.381-24.007-21.125-29.954-26.661c13.062-2.177,23.862-4.22,37.563-7.185
			c1.138-12.846,2.341-23.722,4.236-37.478c9.406,8.757,15.95,14.722,27.676,24.633c-0.821,9.781-1.642,19.17-2.368,37.649
			C336.493,1443.542,327.007,1445.609,317.339,1447.753z"/>
		<path d="M354.469,1477.401c-1-0.767-22.745-17.318-31.468-24.862c13.059-2.947,31.491-7.771,37.068-9.383
			c0.101-5.068,0.908-23.765,2.021-37.67c7.422,6.437,26.781,21.213,29.071,22.97c-0.275,9.08-0.385,24.124-0.121,37.699
			C377.971,1470.5,363.048,1475.011,354.469,1477.401z"/>
		<path d="M393.342,1504.73c-17.382-11.447-29.517-20.476-32.896-22.94c17.323-5.053,25.446-7.826,36.457-11.571
			c-0.301-11.411-0.54-20.128-0.218-37.711c4.194,3.059,14.7,10.87,30.387,21.19c0.373,12.347,0.988,23.755,2.099,37.659
			C416.095,1496.599,405.299,1500.604,393.342,1504.73z"/>
		<path d="M433.731,1529.772c-9.783-5.781-21.824-12.831-34.194-20.966c13.093-4.675,23.348-8.692,35.689-13.68
			c-1.071-12.932-1.861-23.757-2.433-37.662c11.367,7.487,22.837,14.193,31.579,19.364c1.162,13.112,3.518,32.114,4.331,37.468
			C463.561,1516.793,445.821,1524.801,433.731,1529.772z"/>
		<path d="M475.569,1552.32c-12.536-6.235-23.405-12.179-35.392-18.881c17.869-7.618,26.686-11.905,34.835-15.814
			c-1.054-7.175-2.725-18.035-4.686-37.412c2.352,1.315,16.778,9.538,32.679,17.433c2.657,17.519,4.388,26.185,6.557,37.135
			C499.114,1540.449,491.656,1544.497,475.569,1552.32z"/>
		<path d="M518.663,1572.373c-12.665-5.539-24.063-10.599-36.452-16.752c10.212-5.007,23.864-12.294,33.814-17.822
			c-2.297-11.013-5.144-25.871-6.888-37.105c14.23,7.076,29.041,13.448,33.651,15.465c2.686,12.569,5.693,25.028,8.747,36.715
			C541.593,1559.067,530.36,1565.793,518.663,1572.373z"/>
		<path d="M562.887,1589.804c-15.55-5.483-30.59-11.75-37.396-14.532c18.205-10.5,28.237-17.006,32.709-19.858
			c-0.965-3.538-4.517-16.133-9.11-36.578c3.478,1.42,19.569,8.153,34.518,13.412c5.402,19.445,8.801,29.534,10.943,36.076
			C590.092,1571.493,580.653,1578.337,562.887,1589.804z"/>
	</g>
	<g>
		<path d="M562.887,1589.804c-15.55-5.483-30.59-11.75-37.396-14.532c18.205-10.5,28.237-17.006,32.709-19.858
			c-0.965-3.538-4.517-16.133-9.11-36.578c3.478,1.42,19.569,8.153,34.518,13.412c5.402,19.445,8.801,29.534,10.943,36.076
			C590.092,1571.493,580.653,1578.337,562.887,1589.804z"/>
		<path d="M608.08,1604.547c-4.994-1.486-18.988-5.518-38.196-12.278c3.792-2.501,14.562-9.48,31.451-21.741
			c-6.502-19.206-9.644-30.382-11.268-36.005c17.76,6.261,31.744,10.288,35.253,11.332c1.318,3.831,5.345,15.856,13.072,35.392
			C622.241,1594.259,612.402,1601.373,608.08,1604.547z"/>
		<path d="M654.058,1616.616c-8.143-1.608-37.863-9.692-38.866-9.963c9.518-7.15,19.906-15.233,30.107-23.635
			c-4.839-11.859-9.501-24.217-13.417-35.216c21.716,5.859,34.873,9,35.873,9.195c4.433,10.713,9.57,22.519,15.177,34.497
			C673.326,1600.254,663.561,1608.7,654.058,1616.616z"/>
		<path d="M700.69,1625.822c-15.076-2.501-26.842-4.897-39.384-7.627c10.153-8.56,18.312-15.757,28.632-25.359
			c-5.694-11.853-10.143-21.678-15.491-34.385c4.005,0.872,17.258,3.881,36.359,7.041c5.621,11.677,10.58,21.384,17.203,33.562
			C718.674,1608.66,710.818,1616.374,700.69,1625.822z"/>
		<path d="M747.77,1632.301c-13.296-1.519-26.553-3.083-39.762-5.267c9.468-9.013,18.866-18.452,27.065-26.99
			c-5.664-10.268-11.647-21.568-17.51-33.431c12.126,2.012,24.564,3.472,36.722,4.864c6.236,11.168,12.708,22.08,19.164,32.51
			C765.652,1612.966,756.984,1622.599,747.77,1632.301z"/>
		<path d="M795.137,1635.979c-12.455-0.362-35.547-2.517-39.992-2.912c14.966-16.111,23.225-26.013,25.42-28.597
			c-6.016-9.487-12.002-19.248-19.467-32.284c1.774,0.157,25.976,2.387,36.957,2.692c7.038,10.973,13.715,20.897,21.048,31.278
			C812.181,1615.303,802.445,1627.274,795.137,1635.979z"/>
		<path d="M842.622,1636.808c-14.225,0.199-25.539,0.005-40.078-0.545c7.87-9.562,13.107-15.93,23.691-30.016
			c-10.287-14.262-14.756-21.079-21.332-31.109c12.721,0.485,24.279,0.689,37.064,0.503c11.524,15.918,17.623,23.469,22.838,30.019
			C860.674,1611.737,854.881,1620.413,842.622,1636.808z"/>
		<path d="M890.081,1634.909c-14.04,0.997-29.463,1.639-40.049,1.793c2.36-3.221,9.94-13.37,21.9-31.347
			c-13.173-16.216-20.071-25.701-23.111-29.812c8.436-0.117,22.585-0.625,37.023-1.658c11.56,14.166,17.44,20.682,24.557,28.627
			C904.203,1612.88,900.083,1619.782,890.081,1634.909z"/>
	</g>
	<g>
		<path d="M890.081,1634.909c-14.04,0.997-29.463,1.639-40.049,1.793c2.36-3.221,9.94-13.37,21.9-31.347
			c-13.173-16.216-20.071-25.701-23.111-29.812c8.436-0.117,22.585-0.625,37.023-1.658c11.56,14.166,17.44,20.682,24.557,28.627
			C904.203,1612.88,900.083,1619.782,890.081,1634.909z"/>
		<path d="M937.363,1630.22c-15.426,1.982-29.224,3.363-39.887,4.161c7.104-10.976,13.425-21.286,20.023-32.579
			c-14.938-16.344-23.262-26.533-24.82-28.404c9.747-0.723,22.507-1.998,36.847-3.845c9.707,10.488,14.511,15.602,26.207,27.123
			C948,1611.661,944.376,1618.033,937.363,1630.22z"/>
		<path d="M984.295,1622.738c-19.879,3.71-33.898,5.801-39.578,6.535c6.271-11.059,12.783-23.325,18.06-33.706
			c-8.316-8.094-17.681-17.523-26.459-26.886c1.039-0.133,15.158-2.044,36.543-6.036c5.253,5.049,12.43,12.077,27.775,25.517
			C992.431,1606.644,988.002,1615.327,984.295,1622.738z"/>
		<path d="M1030.707,1612.477c-7.537,1.852-31.373,7.679-39.121,8.897c2.617-5.284,9.687-20.211,16.022-34.719
			c-11.213-9.702-23.127-20.604-28.015-25.266c6.897-1.061,29.454-6.582,36.111-8.216c9.355,7.995,18.337,15.331,29.251,23.816
			C1037.457,1596.955,1032.145,1609.126,1030.707,1612.477z"/>
		<path d="M1076.43,1599.471c-23.038,7.032-14.779,4.642-38.532,11.187c4.57-11.018,9.421-23.31,13.911-35.64
			c-10.288-7.832-20.685-16.192-29.467-23.521c21.431-5.904,13.811-3.684,35.563-10.326c8.766,6.676,21.464,15.729,30.626,22.028
			C1085.265,1573.731,1080.259,1588.945,1076.43,1599.471z"/>
		<path d="M1121.29,1583.74c-12.521,4.998-31.904,11.444-37.808,13.43c7.237-20.801,10.615-32.575,11.753-36.404
			c-8.733-5.854-17.808-12.09-30.822-21.719c4.929-1.659,23.353-7.771,34.897-12.393c9.098,6.023,22.312,14.443,31.878,20.128
			C1128.594,1557.63,1124.44,1572.889,1121.29,1583.74z"/>
		<path d="M1165.106,1565.308c-7.842,3.641-20.056,8.941-36.926,15.682c5.13-18.077,7.146-26.78,9.557-37.036
			c-8.365-4.927-16.506-9.676-32.068-19.842c16.502-6.592,27.875-11.584,34.087-14.474c18.53,10.771,29.875,16.552,33.026,18.193
			C1170.985,1537.756,1168.917,1548.608,1165.106,1565.308z"/>
		<path d="M1207.745,1544.312c-11.761,6.268-24.532,12.577-35.913,17.871c2.035-9.341,4.127-18.733,7.331-37.534
			c-16.637-8.457-24.424-12.917-33.2-17.898c11.258-5.23,22.689-10.914,33.157-16.499c16.366,8.283,24.619,11.957,34.055,16.2
			C1211.839,1517.439,1210.816,1526.034,1207.745,1544.312z"/>
	</g>
	<g>
		<path d="M1207.745,1544.312c-11.761,6.268-24.532,12.577-35.913,17.871c2.035-9.341,4.127-18.733,7.331-37.534
			c-16.637-8.457-24.424-12.917-33.2-17.898c11.258-5.23,22.689-10.914,33.157-16.499c16.366,8.283,24.619,11.957,34.055,16.2
			C1211.839,1517.439,1210.816,1526.034,1207.745,1544.312z"/>
		<path d="M1249.064,1520.832c-2.685,1.625-17.011,10.463-34.774,19.99c2.014-12.768,3.59-24.472,5.085-37.897
			c-19.83-8.678-31.285-14.451-34.212-15.895c15.547-8.325,29.3-16.758,32.112-18.46c6.832,2.942,16.386,7.142,34.963,14.154
			C1251.072,1502.331,1249.972,1512.204,1249.064,1520.832z"/>
		<path d="M1288.923,1494.959c-1.782,1.215-20.409,14.088-33.516,22.031c0.521-4.743,1.979-22.2,2.83-38.125
			c-15.244-5.649-30.917-12.017-35.102-13.841c11.292-6.828,27.902-18.269,30.955-20.35c12.099,4.404,23.715,8.295,35.747,12.063
			C1289.814,1468.814,1289.561,1481.468,1288.923,1494.959z"/>
		<path d="M1327.191,1466.79c-19.119,14.607-12.239,9.498-32.179,23.936c0.421-11.826,0.67-24.846,0.543-38.254
			c-12.133-3.647-24.547-7.741-35.84-11.707c18.422-13.336,12.069-8.62,29.729-22.111c10.619,3.176,28.064,7.888,36.387,9.911
			C1326.376,1437.232,1327.067,1455.66,1327.191,1466.79z"/>
		<path d="M1363.677,1436.354c-5.577,5.017-15.932,13.866-30.706,25.793c-0.44-20.233-1.145-29.682-1.715-38.211
			c-5.946-1.422-16.919-3.943-36.475-9.575c13.54-10.934,23.522-19.46,28.371-23.829c10.642,2.482,25.754,5.752,36.903,7.739
			C1361.478,1409.587,1362.848,1425.017,1363.677,1436.354z"/>
		<path d="M1398.305,1403.823c-7.797,7.813-17.466,17.078-29.117,27.571c-0.977-11.773-1.668-20.198-3.962-38.036
			c-17.964-3.151-26.343-5.042-36.983-7.411c10.419-9.377,19.392-17.94,26.903-25.475c18.228,3.166,27.419,4.3,37.302,5.555
			C1394.174,1375.782,1395.832,1384.929,1398.305,1403.823z"/>
		<path d="M1430.968,1369.322c-1.416,1.58-13.512,15.281-27.427,29.252c-1.492-10.589-3.229-21.898-6.193-37.729
			c-21.289-2.491-33.464-4.585-37.363-5.222c7.934-7.954,16.555-17.219,25.342-27.029c7.769,0.864,17.954,2.067,37.572,3.35
			C1427.569,1351.343,1429.482,1361.641,1430.968,1369.322z"/>
		<path d="M1461.324,1333.595c-0.832,1.007-18.466,22.443-25.41,30.203c-0.899-4.787-4.616-21.976-8.401-37.293
			c-16.031-0.952-32.978-2.474-37.614-3.013c6.245-6.962,23.257-27.637,24.256-28.846l37.924,2.11L1461.324,1333.595z"/>
	</g>
	<g>
		<path d="M1396.014,1313.52c3.361-2.733,25.258-22.621,26.938-24.142l4.561,37.127l36.49,8.224
			c-2.519,2.281-24.663,22.354-28.013,25.092c-19.489-4.475-30.1-7.562-36.537-9.374
			C1399.072,1344.953,1398.344,1332.979,1396.014,1313.52z"/>
		<path d="M1363.59,1339.68c1-0.719,13.885-10.471,27.46-21.961c1.116,10.361,2.157,20.761,3.1,37.017
			c18.897,5.559,31.372,8.485,36.392,9.698c-12.694,10.735-27.031,21.86-30.155,24.113c-18.966-5.713-29.35-9.491-35.831-11.794
			C1364.543,1371.687,1364.62,1359.363,1363.59,1339.68z"/>
		<path d="M1329.494,1363.613c3.694-2.357,16.234-10.767,28.862-20.077c0.458,11.323,0.76,21.634,0.62,37.14
			c18.482,6.811,30.768,10.572,35.664,12.108c-14.471,10.661-28.356,19.91-31.701,22.048c-18.987-7.138-29.482-11.794-34.964-14.167
			C1328.279,1395.976,1329.202,1383.455,1329.494,1363.613z"/>
		<path d="M1293.877,1385.206c8.4-4.842,16.134-9.164,30.136-18.099c-0.144,5.425-0.348,17.183-1.869,37.094
			c17.848,7.976,28.517,12.036,34.776,14.471c-14.785,9.427-22.137,13.565-33.109,19.88c-18.296-8.322-29.3-14.095-33.937-16.486
			C1290.368,1418.348,1292.253,1404.976,1293.877,1385.206z"/>
		<path d="M1256.891,1404.347c20.167-9.864,23.621-11.839,31.281-16.026c-0.583,6.189-1.544,17.445-4.357,36.88
			c17.123,9.084,27.176,13.705,33.729,16.778c-15.359,8.389-23.518,12.304-34.377,17.608
			c-18.962-10.307-25.719-14.478-32.749-18.728C1252.002,1433.041,1253.664,1425.237,1256.891,1404.347z"/>
		<path d="M1218.704,1420.947c19.985-8.129,24.528-10.295,32.289-13.872c-1.037,6.366-2.794,17.688-6.833,36.497
			c16.133,10.015,25.807,15.295,32.526,19.017c-16.559,7.628-23.164,10.239-35.493,15.246c-1.474-0.907-14.396-8.952-31.408-20.887
			C1214.619,1439.335,1217.832,1425.099,1218.704,1420.947z"/>
		<path d="M1179.487,1434.927c8.433-2.768,15.775-5.045,33.153-11.649c-1.949,8.345-4.224,18.319-9.284,35.943
			c15.137,10.888,24.249,16.703,31.171,21.178c-18.837,7.154-27.094,9.738-36.448,12.805c-8.642-6.232-19.064-14.171-29.92-22.95
			C1172.901,1456.683,1176.728,1444.511,1179.487,1434.927z"/>
		<path d="M1139.415,1446.223c18.898-4.772,23.619-6.268,33.868-9.368c-3.485,11.585-7.123,22.61-11.695,35.222
			c10.4,8.616,19.633,15.821,29.672,23.248c-11.729,3.548-16.48,5.062-37.234,10.298c-10.349-8.64-18.835-16.138-28.296-24.901
			C1131.308,1467.646,1135.326,1457.381,1139.415,1446.223z"/>
	</g>
	<g>
		<path d="M1139.415,1446.223c18.898-4.772,23.619-6.268,33.868-9.368c-3.485,11.585-7.123,22.61-11.695,35.222
			c10.4,8.616,19.633,15.821,29.672,23.248c-11.729,3.548-16.48,5.062-37.234,10.298c-10.349-8.64-18.835-16.138-28.296-24.901
			C1131.308,1467.646,1135.326,1457.381,1139.415,1446.223z"/>
		<path d="M1098.668,1454.788c18.627-3.332,26.271-5.187,34.431-7.044c-6.148,16.28-9.97,24.985-14.052,34.337
			c7.239,6.818,14.267,13.477,28.036,25.215c-10.234,2.332-17.889,4.172-37.844,7.744c-10.727-10.279-19.846-19.561-26.547-26.726
			C1087.245,1479.45,1092.709,1468.144,1098.668,1454.788z"/>
		<path d="M1057.427,1460.596c15.486-1.651,24.76-3.137,34.838-4.694c-8.118,17.719-13.398,27.646-16.338,33.295
			c4.181,4.516,11.86,12.961,26.274,27.064c-10.034,1.556-19.946,3.199-38.273,5.159c-4.082-4.486-12.029-13.067-24.694-28.449
			C1049.223,1476.232,1054.135,1466.798,1057.427,1460.596z"/>
		<path d="M1015.874,1463.646c15.159-0.535,34.088-2.221,35.089-2.357c-3.251,6.055-11.53,20.844-18.534,32.127
			c8.104,10.201,19.455,23.277,24.4,28.763c-1,0.133-21.34,1.975-38.517,2.59c-7.901-9.88-14.793-18.937-22.746-30.053
			C1002.675,1484.452,1008.889,1475.001,1015.874,1463.646z"/>
		<path d="M974.188,1463.966c1.001,0.046,20.959,0.421,35.185-0.09c-7.379,11.685-14.924,22.862-20.627,30.871
			c5.637,8.094,13.758,19.165,22.434,30.273c-16.043,0.566-37.587,0.14-38.587,0.095c-11.68-16.857-18.524-28.006-20.714-31.527
			C958.374,1485.396,965.336,1476.366,974.188,1463.966z"/>
		<path d="M932.593,1461.458c20.442,1.816,29.648,2.052,35.096,2.259c-5.206,7.114-10.999,15.128-22.616,29.441
			c9.525,15.71,15.221,24.047,20.39,31.69c-21.523-0.821-32.844-1.976-38.522-2.48c-5.754-9.588-11.51-19.514-18.583-32.758
			C921.429,1475.186,929.164,1465.649,932.593,1461.458z"/>
		<path d="M891.272,1456.226c15.87,2.594,26.278,3.649,34.847,4.631c-12.769,15.277-21.285,24.331-24.518,27.823
			c1.448,2.782,7.496,14.688,18.232,33.025c-11.09-1.264-20.969-2.267-38.282-5.085c-5.84-11.349-10.91-21.819-16.338-33.974
			C874.054,1474.176,882.122,1466.035,891.272,1456.226z"/>
		<path d="M850.399,1448.269c6.973,1.519,20.245,4.545,34.462,6.895c-9.497,9.94-19.293,19.593-26.341,26.175
			c1.854,4.295,7.95,18.047,15.986,34.113c-15.531-2.578-28.643-5.564-37.876-7.582c-8.121-18.929-12.557-31.148-14.001-35.039
			C831.579,1465.305,840.166,1457.807,850.399,1448.269z"/>
	</g>
	<g>
		<path d="M850.399,1448.269c6.973,1.519,20.245,4.545,34.462,6.895c-9.497,9.94-19.293,19.593-26.341,26.175
			c1.854,4.295,7.95,18.047,15.986,34.113c-15.531-2.578-28.643-5.564-37.876-7.582c-8.121-18.929-12.557-31.148-14.001-35.039
			C831.579,1465.305,840.166,1457.807,850.399,1448.269z"/>
		<path d="M810.182,1437.494c6.302,1.874,15.549,4.756,33.905,9.233c-6.49,5.904-13.851,12.671-28.043,24.323
			c6.32,17.672,10.47,27.488,13.644,35.129c-20.184-4.928-30.409-8.109-37.273-10.151c-5.665-16.06-10.203-30.874-11.622-35.838
			C782.625,1458.876,795.189,1449.707,810.182,1437.494z"/>
		<path d="M770.779,1424.053c14.959,5.692,24.652,8.76,33.192,11.535c-15.035,11.991-23.868,18.217-29.611,22.336
			c1.854,6.49,4.789,17.11,11.227,36.007c-9.2-2.985-19.51-6.228-36.492-12.679c-1.842-6.674-4.988-17.768-9.17-36.548
			C755.976,1434.571,764.797,1428.267,770.779,1424.053z"/>
		<path d="M732.361,1408.002c11.308,5.283,28.953,12.456,32.344,13.743c-7.654,5.341-18.856,12.767-31.055,20.291
			c2.823,13.333,6.094,26.807,8.77,36.677c-5.115-1.948-24.396-9.899-35.553-15.105c-3.845-18.563-5.383-28.862-6.668-37.114
			C707.332,1422.612,716.705,1417.581,732.361,1408.002z"/>
		<path d="M695.101,1389.407c9.446,4.98,18.045,9.615,31.373,15.845c-9.692,5.772-19.348,11.309-32.381,18.202
			c2.864,19.962,5.497,33.008,6.302,37.131c-14.491-6.786-23.38-11.558-34.475-17.417c-2.928-22.239-3.534-30.4-4.141-37.501
			C668.148,1402.753,675.753,1399.37,695.101,1389.407z"/>
		<path d="M659.2,1368.293c5.715,3.566,13.896,8.82,30.226,17.945c-7.456,3.768-16.604,8.454-33.519,15.959
			c1.371,18.594,2.721,28.995,3.775,37.494c-17.298-9.673-25.461-14.88-33.207-19.717c-0.971-13.952-1.504-27.665-1.643-37.65
			C634.174,1378.831,646.59,1373.833,659.2,1368.293z"/>
		<path d="M624.782,1344.833c14.973,10.924,23.629,16.458,28.943,19.957c-17.095,7.305-27.275,10.985-34.498,13.65
			c0.08,8.364,0.119,18.794,1.234,37.687c-6.938-4.566-15.536-10.068-31.791-21.918c-0.003-3.766-0.132-17.236,0.866-37.656
			C603.597,1352.276,613.355,1348.942,624.782,1344.833z"/>
		<path d="M591.995,1319.135c10.977,9.264,17.735,14.361,27.533,21.869c-18.64,6.495-31.113,10.059-35.319,11.291
			c-0.66,11.168-1.157,22.354-1.305,37.705c-10.409-7.965-17.962-13.667-30.237-24.012c0.761-12.183,1.798-23.95,3.398-37.536
			C568.276,1325.635,579.642,1322.718,591.995,1319.135z"/>
	</g>
	<g>
		<path d="M591.995,1319.135c10.977,9.264,17.735,14.361,27.533,21.869c-18.64,6.495-31.113,10.059-35.319,11.291
			c-0.66,11.168-1.157,22.354-1.305,37.705c-10.409-7.965-17.962-13.667-30.237-24.012c0.761-12.183,1.798-23.95,3.398-37.536
			C568.276,1325.635,579.642,1322.718,591.995,1319.135z"/>
		<path d="M560.983,1291.314c2.568,2.564,16.907,15.9,26.046,23.623c-13.073,3.614-24.035,6.282-36.026,8.944
			c-1.739,13.792-2.864,25.162-3.788,37.498c-10.445-8.837-26.23-23.582-28.598-25.938c2.556-19.299,4.516-29.606,5.913-37.246
			C531.424,1297.061,542.359,1295.346,560.983,1291.314z"/>
		<path d="M531.899,1261.483c5.608,6.021,12.612,13.753,24.434,25.288c-3.476,0.71-16.448,3.472-36.565,6.544
			c-3.807,19.533-5.492,31.83-6.257,37.139c-12.641-12.349-19.594-19.997-26.824-27.768c1.175-5.967,4.832-23.208,8.389-36.774
			C507.947,1264.784,524.699,1262.571,531.899,1261.483z"/>
		<path d="M504.899,1229.754c5.73,7.113,10.296,12.933,22.67,26.878c-9.921,1.328-19.272,2.603-36.898,4.073
			c-4.513,16.909-6.437,25.922-8.741,36.658c-13.741-15.488-19.32-22.593-24.892-29.513c3.641-13.425,7.593-26.469,10.787-36.103
			C477.598,1231.513,490.882,1230.871,504.899,1229.754z"/>
		<path d="M480.07,1196.306c10.331,14.908,15.999,22.08,20.801,28.346c-18.103,1.261-28.616,1.421-37.064,1.584
			c-2.37,7.044-5.938,17.412-11.191,36.01c-6.282-8.191-11.77-15.158-22.845-31.129c1.703-4.917,5.584-16.48,13.165-35.294
			C462.809,1196.598,473.877,1196.375,480.07,1196.306z"/>
		<path d="M457.523,1161.286c8.567,14.395,18.135,28.679,18.841,29.679c-21.828-0.056-30.937-0.605-37.072-0.908
			c-5.528,13.324-8.682,21.63-13.589,35.192c-0.704-1-10.999-16.321-20.7-32.601c4.882-11.626,9.529-21.99,15.528-34.348
			C432.924,1159.642,444.18,1160.581,457.523,1161.286z"/>
		<path d="M437.363,1124.844c0.855,1.717,9.398,18.248,16.852,30.846c-13.378-0.866-26.73-2.123-36.972-3.366
			c-4.395,8.766-10.23,21.158-15.874,34.176c-6.763-11.448-15.94-28.738-18.515-33.895c8.989-17.846,15.072-28.383,17.831-33.242
			C411.045,1121.169,421.398,1122.891,437.363,1124.844z"/>
		<path d="M419.733,1087.12c3.6,8.226,7.471,17.285,14.739,31.904c-5.526-0.743-16.918-2.161-36.673-5.84
			c-9.961,17.072-15.053,27.1-18.125,33.026c-8.032-16.173-12.212-25.95-16.198-35.067c5.067-8.65,12.374-20.447,20.011-31.956
			C396.793,1082.472,410.07,1085.307,419.733,1087.12z"/>
	</g>
	<g>
		<path d="M419.733,1087.12c3.6,8.226,7.471,17.285,14.739,31.904c-5.526-0.743-16.918-2.161-36.673-5.84
			c-9.961,17.072-15.053,27.1-18.125,33.026c-8.032-16.173-12.212-25.95-16.198-35.067c5.067-8.65,12.374-20.447,20.011-31.956
			C396.793,1082.472,410.07,1085.307,419.733,1087.12z"/>
		<path d="M404.707,1048.291c6.447,18.308,10.108,26.926,12.522,32.833c-12.449-2.5-23.827-5.103-36.164-8.312
			c-7.373,10.812-13.708,20.748-20.343,31.742c-4.071-9.962-7.016-16.935-13.766-36.094c1.559-2.269,9.317-13.807,22.079-30.516
			C388.28,1044.07,399.971,1047.044,404.707,1048.291z"/>
		<path d="M392.315,1008.546c3.897,14.338,7.022,23.679,10.244,33.613c-18.767-5.149-30.52-9.108-35.486-10.747
			c-1.809,2.317-10.253,12.919-22.475,30.306c-3.545-10.906-6.914-20.987-11.265-36.953c7.889-10.016,15.146-18.767,24.129-28.963
			C369.001,1000.385,379.573,1004.29,392.315,1008.546z"/>
		<path d="M382.604,968.058c0.171,1.003,4.31,20.553,8.013,34.216c-15.758-5.476-30.62-11.372-34.735-13.108
			c-2.075,2.26-12.62,14.084-24.415,28.702c-4.078-15.091-8.632-36.61-8.806-37.613c13.755-15.141,22.566-23.788,26.067-27.275
			C358.672,957.705,368.759,962.325,382.604,968.058z"/>
		<path d="M375.712,926.988c2.997,21.408,4.636,29.29,5.671,34.688c-6.751-2.89-16.571-7.004-33.769-15.423
			c-13.102,12.745-19.697,19.888-26.299,26.989c-1.254-6.552-2.984-14.898-6.231-38.116c10.159-9.794,17.282-16.246,27.768-25.45
			C362.482,920.563,370.832,924.574,375.712,926.988z"/>
		<path d="M371.564,885.538c0.907,14.396,2.235,25.665,3.301,35.006c-17.467-8.867-27.117-14.511-32.616-17.662
			c-3.581,3.056-12.945,10.877-28.094,25.164c-1.062-9.278-2.579-21.991-3.627-38.439c9.637-8.152,18.563-15.318,29.436-23.539
			C350.421,872.908,360.096,878.911,371.564,885.538z"/>
		<path d="M370.127,843.882c0.096,7.319,0.174,21.787,1.026,35.166c-13.796-8.198-27.16-16.9-31.417-19.797
			c-5.458,3.974-17.913,13.534-29.658,23.232c-0.92-14.611-1.02-30.244-1.122-38.576c11.601-8.426,19.274-13.836,30.964-21.542
			C351.107,830.765,358.778,836.151,370.127,843.882z"/>
		<path d="M371.532,802.225c-0.721,11.36-1.124,19.014-1.327,35.151c-10.042-6.873-19.389-13.648-30.026-21.827
			c-11.58,7.443-21.186,14.026-31.142,21.223c0.086-6.772,0.097-17.077,1.456-38.566c3.001-1.91,14.298-9.246,32.255-19.453
			C357.974,791.837,367.661,799.223,371.532,802.225z"/>
	</g>
	<g>
		<path d="M371.532,802.225c-0.721,11.36-1.124,19.014-1.327,35.151c-10.042-6.873-19.389-13.648-30.026-21.827
			c-11.58,7.443-21.186,14.026-31.142,21.223c0.086-6.772,0.097-17.077,1.456-38.566c3.001-1.91,14.298-9.246,32.255-19.453
			C357.974,791.837,367.661,799.223,371.532,802.225z"/>
		<path d="M375.641,760.771c-1.899,13.529-3.045,27.649-3.698,34.964c-8.718-6.907-20.152-16.351-28.464-23.763
			c-9.989,5.441-22.853,13.098-32.53,19.111c0.675-7.634,1.902-22.956,4.057-38.4c16.616-9.112,25.878-13.536,33.529-17.248
			C354.472,741.252,361.9,748.613,375.641,760.771z"/>
		<path d="M382.508,719.697c-1.462,7.641-3.745,18.825-5.966,34.637c-8.325-7.544-16.481-15.186-26.892-25.627
			c-18.32,8.623-30.02,14.965-33.655,16.905c2.389-16.929,4.701-28.382,6.559-38.063c2.694-1.28,17.215-7.963,34.626-14.951
			C367.88,704.66,378.585,715.793,382.508,719.697z"/>
		<path d="M392.181,679.2c-5.313,19.63-7.212,29.058-8.319,34.142c-8.632-8.906-16.263-17.21-25.065-27.369
			c-12.06,4.676-22.549,9.066-34.757,14.591c1.49-6.845,3.421-16.377,9.145-37.532c10.465-4.005,21.053-7.887,35.495-12.596
			C380.885,666.185,388.92,675.406,392.181,679.2z"/>
		<path d="M404.536,639.443c-5.107,14.49-7.87,24.189-10.64,33.49c-12.54-14.898-19.827-24.643-23.121-28.989
			c-3.09,0.972-16.025,4.91-35.701,12.198c2.5-8.413,5.841-20.175,11.694-36.82c11.595-3.6,22.905-6.8,36.299-10.155
			C390.054,619.614,396.765,629.131,404.536,639.443z"/>
		<path d="M419.527,600.601c-1.324,3.022-8.735,21.062-12.833,32.714c-7.966-10.857-15.682-22.086-21.152-30.502
			c-9.624,2.278-23.104,5.825-36.4,9.773c3.695-10.48,11.12-29.121,14.109-35.962c19.53-4.583,30.318-6.458,36.933-7.666
			C402.751,573.395,408.729,583.951,419.527,600.601z"/>
		<path d="M437.135,562.866c-8.771,17.661-11.284,23.277-15.002,31.782c-2.794-4.422-9.187-14.332-19.063-31.87
			c-19.778,3.371-30.99,5.974-36.957,7.301c7.113-16.248,12-25.898,16.491-34.929c9.52-1.607,23.152-3.578,37.351-5.167
			C426.062,542.459,432.345,554.336,437.135,562.866z"/>
		<path d="M457.261,526.407c-9.673,16.359-13.425,23.66-17.135,30.69c-6.349-11.653-11.5-21.813-16.845-33.067
			c-12.584,1.254-23.983,2.697-37.393,4.78c3.818-7.236,7.833-15.124,18.827-33.721c7.047-0.675,15.507-1.575,37.568-2.673
			C450.705,512.69,454.293,520.102,457.261,526.407z"/>
	</g>
	<g>
		<path d="M457.261,526.407c-9.673,16.359-13.425,23.66-17.135,30.69c-6.349-11.653-11.5-21.813-16.845-33.067
			c-12.584,1.254-23.983,2.697-37.393,4.78c3.818-7.236,7.833-15.124,18.827-33.721c7.047-0.675,15.507-1.575,37.568-2.673
			C450.705,512.69,454.293,520.102,457.261,526.407z"/>
		<path d="M479.776,491.366c-8.394,12.101-13.52,20.393-19.183,29.46c-8.096-17.66-12.647-29.311-14.56-34.108
			c-4.329,0.154-17.259,0.504-37.655,2.241c5.804-9.303,11.564-18.643,21.069-32.362c7.707-0.206,18.771-0.57,37.68-0.137
			C473.082,474.36,477.004,484.243,479.776,491.366z"/>
		<path d="M504.576,457.896c-6.839,8.485-17.821,23.396-21.097,28.127c-3.534-9.202-8.004-21.772-12.259-35.019
			c-14.006-0.464-27.674-0.497-37.704-0.275c3.618-5.214,15.427-21.271,23.168-30.889c18.581,0.696,28.561,1.612,37.627,2.4
			C496.606,430.963,499.154,440.815,504.576,457.896z"/>
		<path d="M531.548,426.143c-1.542,1.665-13.042,14.499-22.893,26.69c-4.127-13.552-6.439-22.056-9.929-35.791
			c-19.237-1.835-27.831-2.286-37.564-2.762c10.047-12.418,22.204-26.127,25.14-29.303c20.535,2.182,32.68,4.186,37.404,4.924
			C524.273,392.871,526.727,406.362,531.548,426.143z"/>
		<path d="M560.615,396.295c-5.845,5.709-12.45,11.996-24.636,25.091c-1.497-6.477-4.116-17.433-7.51-36.364
			c-18.694-3.145-29.265-4.324-37.306-5.271c13.111-14.08,19.45-20.128,27.05-27.547c14.256,2.476,25.538,4.791,36.965,7.379
			C556.85,373.291,558.551,384.443,560.615,396.295z"/>
		<path d="M591.602,368.447c-14.365,12.144-20.277,17.792-26.272,23.371c-2.771-16.771-3.796-25.78-5.049-36.763
			c-11.026-2.585-19.753-4.63-36.891-7.768c7.49-6.973,13.382-12.586,28.845-25.662c10.89,2.654,21.796,5.47,36.363,9.793
			C589.689,351.029,591.035,363.085,591.602,368.447z"/>
		<path d="M624.366,342.719c-11.943,8.704-19.711,15.042-27.788,21.543c-1.883-19.678-2.358-32.363-2.568-36.995
			c-3.551-1.093-16.161-5.101-36.309-10.234c7.156-5.766,15.991-13.062,30.513-23.66c8.218,2.61,18.282,5.747,35.645,12.224
			C623.626,323.521,624.02,333.394,624.366,342.719z"/>
		<path d="M658.764,319.228c-10.125,6.314-26.734,17.852-29.146,19.659c-0.323-9.939-0.431-23.241-0.106-37.107
			c-12.956-4.985-25.824-9.484-35.528-12.614c3.149-2.35,21.131-14.796,32.013-21.594c17.975,7.005,27.795,11.488,34.763,14.609
			C660.166,289.849,659.259,300.719,658.764,319.228z"/>
	</g>
	<g>
		<path d="M658.764,319.228c-10.125,6.314-26.734,17.852-29.146,19.659c-0.323-9.939-0.431-23.241-0.106-37.107
			c-12.956-4.985-25.824-9.484-35.528-12.614c3.149-2.35,21.131-14.796,32.013-21.594c17.975,7.005,27.795,11.488,34.763,14.609
			C660.166,289.849,659.259,300.719,658.764,319.228z"/>
		<path d="M694.649,298.089c-7.906,4.423-17.511,9.665-30.371,17.698c0.425-11.004,1.014-22.04,2.353-37.074
			c-18.285-8.45-30.501-13.278-34.578-14.922c13.768-8.587,24.282-14.365,33.37-19.441c20.449,9.735,27.895,13.826,33.715,16.932
			C697.049,275.464,696.07,283.887,694.649,298.089z"/>
		<path d="M731.896,279.465c-6.101,2.849-14.816,6.781-31.501,15.586c0.96-8.897,1.988-18.824,4.852-36.804
			c-16.245-8.916-25.654-13.423-33.512-17.238c17.629-9.299,26.262-13.227,34.619-17.128c12.085,6.698,23.949,13.741,32.476,19.112
			C736.63,252.918,734.064,266.167,731.896,279.465z"/>
		<path d="M770.299,263.379c-16.86,6.406-26.71,10.87-32.488,13.397c3.148-18.132,5.43-27.958,7.333-36.363
			c-5.948-3.784-15.328-9.849-32.288-19.487c8.164-3.573,17.666-7.864,35.711-14.728c5.438,3.529,15.069,9.66,31.11,21.254
			C774.269,246.132,771.96,256.317,770.299,263.379z"/>
		<path d="M809.69,249.902c-13.621,4.046-32.315,10.757-33.318,11.167c2.1-8.746,5.538-21.701,9.775-35.776
			c-12.486-9.226-24.496-17.434-30.901-21.631c1-0.404,21.458-7.76,36.629-12.279c14.872,11.093,22.492,17.456,29.612,23.344
			C818.407,223.239,814.928,232.726,809.69,249.902z"/>
		<path d="M849.9,239.102c-10.21,2.495-19.59,4.69-33.982,8.947c3.526-11.085,7.144-21.751,12.152-35.102
			c-15.244-12.916-25.77-20.867-29.349-23.603c15.576-4.596,25.234-6.878,37.359-9.833c8.319,7.109,18.072,15.885,27.971,25.313
			C858.514,217.32,853.616,229.298,849.9,239.102z"/>
		<path d="M890.765,231.107c-6.427,1.065-15.149,2.381-34.519,6.599c4.766-12.002,7.811-19.524,14.503-34.164
			c-12.011-11.712-18.477-17.442-27.695-25.568c21.732-4.73,32.477-6.348,37.939-7.253c1.751,1.722,11.845,11.461,26.191,27.066
			C897.653,215.943,892.41,227.547,890.765,231.107z"/>
		<path d="M932.08,225.836c-16.054,1.465-26.397,3.046-34.9,4.233c8.54-17.986,14.497-28.837,16.777-33.071
			c-2.069-2.299-10.901-12.317-25.915-27.415c11.032-1.547,20.844-3.047,38.335-4.653c8.599,9.648,16.218,18.632,24.32,28.803
			C944.406,203.902,938.548,213.942,932.08,225.836z"/>
	</g>
	<g>
		<path d="M932.08,225.836c-16.054,1.465-26.397,3.046-34.9,4.233c8.54-17.986,14.497-28.837,16.777-33.071
			c-2.069-2.299-10.901-12.317-25.915-27.415c11.032-1.547,20.844-3.047,38.335-4.653c8.599,9.648,16.218,18.632,24.32,28.803
			C944.406,203.902,938.548,213.942,932.08,225.836z"/>
		<path d="M973.674,223.303c-10.07,0.386-21.36,0.732-35.117,1.958c6.816-12.191,11.559-20.065,18.949-31.95
			c-8.714-10.986-14.702-18.318-24.016-29.011c15.183-1.343,27.452-1.728,38.541-2.146c5.528,7.053,14.313,18.835,22.354,30.372
			C986.672,203.369,978.677,215.353,973.674,223.303z"/>
		<path d="M1015.359,223.601c-15.545-0.622-24.665-0.537-35.18-0.404c6.961-10.746,13.32-20.014,21.024-30.581
			c-7.102-10.452-13.716-19.658-22.04-30.581c13.219-0.167,22.632-0.189,38.585,0.442c5.135,7.631,10.797,15.963,20.305,31.744
			C1026.273,208.654,1020.409,216.733,1015.359,223.601z"/>
		<path d="M1056.921,226.556c-1.001-0.091-26.341-2.472-35.063-2.697c6.822-9.194,16.815-21.774,22.997-29.14
			c-4.942-8.457-13.525-22.276-19.976-31.957c7.93,0.22,30.307,2.199,38.493,2.964c6.934,12.05,11.716,20.61,18.142,33.077
			C1071.923,209.077,1065.514,216.437,1056.921,226.556z"/>
		<path d="M1098.16,232.387c-18.458-3.208-28.815-4.347-34.784-5.061c8.087-9.474,15.558-17.77,24.886-27.534
			c-5.816-11.616-11.119-21.541-17.8-33.226c5.424,0.65,17.374,1.945,38.217,5.561c2.99,6.045,8.021,15.993,15.891,34.165
			C1110.355,219.607,1103.224,227.132,1098.16,232.387z"/>
		<path d="M1138.919,240.892c-10.491-2.691-32.888-7.175-34.357-7.396c2.325-2.412,13.541-13.741,26.675-25.775
			c-6.833-16.265-13.96-31.212-15.523-34.371c1.432,0.219,25.49,4.994,37.764,8.129c7.749,18.704,11.638,29.876,13.538,35.209
			C1164.287,218.924,1153.838,227.335,1138.919,240.892z"/>
		<path d="M1178.992,252.186c-7.076-2.209-16.472-5.257-33.779-9.682c5.488-4.869,13.286-11.897,28.364-23.954
			c-6.366-18.556-10.536-28.709-13.178-35.302c18.8,4.815,29.544,8.275,37.135,10.645c3.709,10.72,8.103,25.176,11.151,35.973
			C1199.527,236.393,1187.732,245.154,1178.992,252.186z"/>
		<path d="M1218.216,266.143c-14.477-5.763-24.828-9.176-33.036-11.977c15.606-12.1,25.866-19.125,29.903-21.936
			c-1.016-3.756-4.294-16.334-10.746-36.159c8.208,2.795,19.492,6.479,36.319,13.164c3.266,12.311,5.984,23.649,8.675,36.688
			C1238.979,252.237,1229.323,258.476,1218.216,266.143z"/>
	</g>
	<g>
		<path d="M1218.216,266.143c-14.477-5.763-24.828-9.176-33.036-11.977c15.606-12.1,25.866-19.125,29.903-21.936
			c-1.016-3.756-4.294-16.334-10.746-36.159c8.208,2.795,19.492,6.479,36.319,13.164c3.266,12.311,5.984,23.649,8.675,36.688
			C1238.979,252.237,1229.323,258.476,1218.216,266.143z"/>
		<path d="M1256.429,282.682c-10.929-5.026-19.976-9.258-32.179-14.128c11.569-7.784,19.602-12.813,31.343-19.925
			c-2.769-13.616-4.855-23.109-8.303-36.742c13.595,5.437,23.737,10.173,35.368,15.532c2.056,10.519,4.315,23.926,6.168,37.215
			C1276.945,270.857,1265.34,277.37,1256.429,282.682z"/>
		<path d="M1293.408,301.832c-17.712-9.859-26.884-14.203-31.141-16.296c10.511-6.117,20.541-11.6,32.601-17.738
			c-1.726-13.54-3.522-24.932-5.792-37.246c6.05,2.975,15.188,7.318,34.221,17.907c0.398,3.237,2.188,16.768,3.683,37.488
			C1308.643,294.05,1297.899,299.569,1293.408,301.832z"/>
		<path d="M1329.047,323.382c-11.463-7.575-21.415-13.336-29.963-18.385c17.666-8.669,29.848-13.815,33.698-15.467
			c-0.71-11.559-1.619-22.981-3.251-37.589c6.282,3.704,19.369,11.253,32.918,20.194c1.05,18.512,1.071,28.316,1.135,37.686
			C1354.936,312.986,1345.55,316.376,1329.047,323.382z"/>
		<path d="M1363.178,347.262c-6.659-4.892-15.172-11.327-28.707-20.298c11.004-4.519,21.538-8.596,34.708-13.243
			c0.098-20.194-0.595-33.739-0.772-37.652c15.142,10.05,24.839,17.377,31.526,22.296c-0.005,3.032-0.227,19.086-1.396,37.687
			C1382.695,340.628,1367.926,345.568,1363.178,347.262z"/>
		<path d="M1395.602,373.42c-14.928-12.808-22.882-18.804-27.267-22.199c11.958-4.025,22.579-7.292,35.49-10.859
			c0.962-12.893,1.501-24.071,1.774-37.652c5.951,4.609,13.915,10.631,29.941,24.376c-0.289,3.654-1.241,17.144-3.871,37.467
			C1412.097,368.835,1400.396,372.116,1395.602,373.42z"/>
		<path d="M1426.239,401.652c-9.619-9.598-17.615-16.693-25.704-23.996c18.85-4.917,31.647-7.509,36.107-8.435
			c1.624-11.585,3.006-22.961,4.312-37.481c9.01,8.122,17.596,15.753,28.224,26.344c-2.612,18.031-4.475,27.376-6.391,37.155
			C1453.317,396.675,1443.665,398.102,1426.239,401.652z"/>
		<path d="M1455.565,432.252c-6.588-7.08-15.634-16.907-24.722-26.009c11.007-2.194,25.519-4.512,36.652-6.069
			c2.286-10.991,5.07-25.837,6.738-37.05c9.936,9.964,20.202,21.104,26.115,27.458l-7.723,36.6L1455.565,432.252z"/>
	</g>
</g>
</svg>
